<?xml version="1.0" standalone="no"?>
<!DOCTYPE svg PUBLIC "-//W3C//DTD SVG 20010904//EN"
 "http://www.w3.org/TR/2001/REC-SVG-20010904/DTD/svg10.dtd">
<svg version="1.0" xmlns="http://www.w3.org/2000/svg"
 width="942.000000pt" height="1280.000000pt" viewBox="0 0 942.000000 1280.000000"
 preserveAspectRatio="xMidYMid meet">
<metadata>
Created by potrace 1.15, written by Peter Selinger 2001-2017
</metadata>
<g transform="translate(0.000000,1280.000000) scale(0.100000,-0.100000)"
fill="#000000" stroke="none">
<path d="M5547 12169 c-61 -14 -93 -36 -113 -76 -17 -34 -19 -63 -19 -283 0
-161 5 -271 13 -320 61 -339 189 -633 350 -803 75 -79 138 -118 245 -152 150
-48 170 -85 143 -275 -34 -245 -93 -438 -191 -635 -90 -179 -101 -264 -54
-402 43 -125 137 -216 282 -272 42 -16 90 -39 106 -51 105 -74 -14 -174 -272
-226 -61 -12 -167 -19 -407 -24 -363 -8 -427 -16 -630 -79 -69 -22 -149 -44
-178 -50 -128 -26 -273 -6 -537 75 -309 94 -424 125 -590 158 -553 111 -1136
115 -1505 10 -205 -59 -447 -208 -790 -486 -253 -205 -391 -242 -507 -135
-118 108 -162 330 -150 756 7 247 29 423 81 636 19 78 40 183 47 234 19 151
-3 169 -127 106 -167 -84 -473 -390 -598 -598 -39 -66 -87 -192 -119 -312 -16
-63 -21 -110 -21 -220 0 -132 2 -145 32 -235 39 -112 81 -185 194 -337 156
-210 349 -540 414 -708 25 -65 27 -82 29 -230 1 -137 4 -170 24 -230 81 -245
240 -443 493 -613 229 -154 371 -339 413 -537 54 -257 -24 -408 -400 -780
-211 -208 -246 -251 -265 -324 -10 -36 -8 -53 9 -110 26 -87 74 -335 105 -546
133 -900 181 -1833 142 -2778 -18 -449 0 -704 69 -975 32 -129 55 -181 101
-232 78 -86 153 -105 414 -105 248 1 341 23 372 90 19 43 0 77 -97 171 -70 66
-101 105 -119 145 -102 230 -163 741 -226 1884 -24 431 -37 995 -23 980 5 -5
18 -32 28 -60 69 -191 317 -726 502 -1084 213 -412 348 -642 425 -722 75 -78
92 -123 108 -281 18 -188 78 -253 293 -320 57 -18 97 -22 192 -23 106 0 126 3
167 23 67 33 93 73 92 142 0 68 -28 124 -113 230 -71 87 -113 165 -130 235
-17 68 -105 225 -291 515 -358 557 -626 1068 -723 1375 -54 172 -61 223 -63
497 -2 328 -14 418 -81 642 l-27 89 75 72 c41 39 158 134 260 210 351 264 543
427 853 722 l209 200 306 6 c168 4 456 7 638 7 l333 0 6 -27 c10 -38 -3 -393
-20 -568 -19 -190 -50 -455 -76 -655 -11 -85 -27 -236 -35 -335 -41 -476 -84
-818 -141 -1125 -35 -190 -65 -308 -129 -515 -88 -288 -125 -493 -125 -702 0
-193 47 -395 128 -548 45 -83 149 -193 212 -222 108 -50 270 -56 368 -13 111
48 126 130 42 241 -72 96 -177 439 -200 656 -16 143 -8 535 14 693 50 355 141
689 271 985 143 327 206 548 220 770 16 254 93 592 213 925 22 62 15 67 61
-47 48 -123 96 -336 121 -543 5 -47 14 -191 19 -320 14 -339 43 -513 131 -785
142 -441 263 -1111 290 -1610 13 -246 62 -401 174 -558 55 -78 102 -174 117
-244 10 -41 9 -68 0 -122 -11 -62 -11 -74 5 -106 29 -63 125 -121 329 -200
206 -81 380 -116 478 -95 74 15 101 44 101 109 0 67 -43 151 -145 281 -198
252 -330 498 -450 837 -204 576 -324 1314 -369 2258 -5 116 -13 563 -17 995
l-6 786 119 134 c329 371 410 475 509 650 72 127 100 198 141 358 50 195 118
359 201 490 87 136 173 342 293 707 90 272 137 400 249 675 136 332 206 555
251 796 38 205 90 317 189 406 26 24 106 83 177 132 152 106 300 249 457 445
284 356 484 698 503 862 5 46 2 59 -18 88 -40 59 -68 73 -140 73 -35 0 -95 -8
-133 -16 -103 -24 -336 -102 -448 -152 -272 -119 -666 -397 -821 -580 -33 -38
-75 -104 -96 -149 -52 -111 -64 -120 -159 -119 -148 3 -589 116 -726 187 -144
75 -197 146 -338 447 -101 215 -201 355 -366 512 -227 216 -454 317 -624 277z"/>
</g>
</svg>
